PathFileType	4	(X/Y/Z)	\\Move.snu.ac.kr\motion\Animal\091204_091205_Bird\091205_bird\Project 2\Capture day 2\Session 1\pigeon_013.trc
DataRate	CameraRate	NumFrames	NumMarkers	Units	OrigDataRate	OrigDataStartFrame	OrigNumFrames
240.0	240.0	26	14	mm	240.0	269	3189
Frame#	Time	14MarkersBird:Head			14MarkersBird:C_back			14MarkersBird:Spine			14MarkersBird:L-shoulder			14MarkersBird:L-elbow			14MarkersBird:L-wrist			14MarkersBird:L-hand			14MarkersBird:R-shoulder			14MarkersBird:R-elbow			14MarkersBird:R-Wrist			14MarkersBird:R-hand			14MarkersBird:C_Tail			14MarkersBird:L-Tale			14MarkersBird:R-Tale			
		X1	Y1	Z1	X2	Y2	Z2	X3	Y3	Z3	X4	Y4	Z4	X5	Y5	Z5	X6	Y6	Z6	X7	Y7	Z7	X8	Y8	Z8	X9	Y9	Z9	X10	Y10	Z10	X11	Y11	Z11	X12	Y12	Z12	X13	Y13	Z13	X14	Y14	Z14	

1837	7.650	21.17003	936.36224	-1679.77283	5.15157	934.55914	-1615.90088	-7.60678	918.04541	-1566.33398	-6.51057	934.66803	-1651.52588	-39.39725	925.72601	-1643.59509	-36.56388	915.82880	-1685.49304	-41.31005	900.51892	-1707.26770	34.35491	927.86707	-1644.80688	55.20720	917.58325	-1630.94202	59.87132	905.83911	-1670.56763	75.47228	882.83887	-1698.11365	-44.18555	827.94641	-1486.62610	-106.28706	882.36670	-1559.39771	73.89795	854.77191	-1513.60522	
1838	7.654	23.14583	933.48907	-1698.30640	7.80560	931.98718	-1634.32324	-4.96806	914.79468	-1584.57300	-4.01516	932.29523	-1669.82031	-37.18517	923.16559	-1660.22876	-30.52008	916.90143	-1702.47705	-30.85040	900.20624	-1724.36084	36.71894	925.50989	-1663.34521	57.40678	915.30554	-1647.87354	58.81733	907.98303	-1688.62939	69.81052	884.21100	-1718.50073	-39.77805	822.44116	-1507.01819	-103.11063	876.10229	-1576.77893	77.06712	850.41925	-1534.08069	
1839	7.658	25.25751	930.51587	-1717.15576	10.50006	929.03540	-1653.19641	-2.08910	911.56061	-1603.49988	-1.48557	929.66656	-1688.24683	-34.94346	921.95282	-1675.94214	-26.59059	920.02368	-1718.36133	-24.67480	902.73016	-1740.19250	39.08027	922.97064	-1682.01965	59.69441	914.35883	-1663.93066	59.80935	911.45465	-1705.07642	68.17377	887.21252	-1736.08118	-35.48552	817.41937	-1527.24524	-99.70580	869.52661	-1593.98645	80.17521	845.48895	-1555.13708	
1840	7.662	27.50074	927.43182	-1736.26086	13.19850	925.69159	-1672.50415	0.85574	908.32495	-1622.62183	1.02456	926.68805	-1706.82471	-32.16002	921.83490	-1690.81482	-24.49380	924.31812	-1733.36768	-22.86303	906.46564	-1754.94934	41.28563	920.15485	-1700.77820	61.54203	914.64063	-1679.17212	62.43874	915.49017	-1720.28589	70.43447	890.45691	-1751.04041	-31.42260	812.86285	-1547.24255	-96.14782	863.25385	-1610.93945	82.91595	840.10956	-1576.37537	
1841	7.667	29.81479	924.25665	-1755.50854	15.88875	922.02832	-1692.15051	3.69882	905.20422	-1641.73230	3.49990	923.34167	-1725.55615	-28.26360	922.41327	-1705.06555	-23.51282	929.07306	-1747.63843	-24.71072	910.36151	-1768.29602	43.29818	917.07538	-1719.58252	62.65746	915.87970	-1693.69397	66.02068	919.61365	-1734.59070	75.79122	893.26874	-1763.51135	-27.67534	808.76166	-1566.97192	-92.67120	858.08472	-1627.68884	85.18863	834.66559	-1597.29370	
1842	7.671	32.12904	921.01764	-1774.76685	18.58105	918.16583	-1711.96924	6.33654	902.20679	-1660.73071	5.96426	919.71344	-1744.42639	-22.99546	923.24475	-1719.10315	-22.68825	933.75116	-1761.25586	-28.96195	914.18231	-1779.59680	45.18548	913.83307	-1738.40808	62.62500	917.71716	-1707.72998	69.76389	923.56396	-1748.24170	83.09978	895.76221	-1773.49988	-24.49114	805.04431	-1586.51929	-89.57539	854.68359	-1644.46021	87.19007	829.81708	-1617.36865	
1843	7.675	34.43189	917.74622	-1793.94458	21.21442	914.19635	-1731.78687	8.83733	899.09747	-1679.63196	8.45809	915.96252	-1763.41089	-16.52982	923.83734	-1733.40503	-21.12059	937.87915	-1774.39514	-33.89553	918.20624	-1788.33044	46.95587	910.56067	-1757.21570	58.95623	919.28229	-1722.75000	72.92322	927.12451	-1761.55420	91.11832	898.57330	-1780.94043	-22.31038	801.51691	-1605.99988	-87.04362	853.28052	-1661.59998	89.28635	826.12744	-1636.33826	
1844	7.679	36.77652	914.47101	-1813.01697	23.63793	910.17303	-1751.46033	11.36029	895.65082	-1698.58191	10.98107	912.21509	-1782.44446	-9.28682	923.62140	-1748.36987	-18.37235	941.00171	-1787.43457	-37.54126	922.80402	-1794.60852	48.51564	907.38116	-1775.96692	53.56407	920.25867	-1740.43115	75.07363	930.03931	-1775.02356	98.59503	902.50989	-1785.95068	-20.57965	798.29144	-1625.14270	-85.02636	853.62170	-1679.40332	91.76062	823.64966	-1654.40771	
1845	7.683	39.22068	911.21399	-1831.99158	25.76049	906.17383	-1770.90564	13.92364	891.96027	-1717.63416	13.45456	908.48486	-1801.40735	-1.80559	922.20673	-1764.26941	-14.70058	942.81824	-1800.85791	-38.30009	928.19824	-1799.49426	49.85101	904.28796	-1794.66663	49.97129	921.14996	-1759.14539	76.37754	932.10303	-1789.16199	104.26789	908.24841	-1789.23279	-19.34612	795.61389	-1643.63855	-83.27610	855.20953	-1697.92468	94.68755	821.97705	-1672.08008	
1846	7.688	41.78597	907.98767	-1850.87817	27.68875	902.29370	-1790.07947	16.31643	888.42511	-1736.60242	15.76517	904.71069	-1820.20276	5.31934	919.73572	-1781.31128	-10.95767	943.35114	-1815.00586	-35.67751	934.37555	-1804.76892	51.17181	901.09460	-1813.35400	47.47993	920.57581	-1778.30847	77.53854	933.27106	-1804.17566	107.14566	916.02466	-1792.29065	-18.59767	793.76624	-1661.17139	-81.47364	857.49841	-1716.95605	97.99559	820.70819	-1689.75146	
1847	7.692	44.44764	904.78894	-1869.67493	29.67157	898.52808	-1808.99585	18.64101	884.96722	-1755.50427	17.84200	900.83551	-1838.82239	11.67733	916.58508	-1799.33118	-8.20035	942.89600	-1829.89038	-30.50555	941.02325	-1812.20239	52.80884	897.57104	-1832.05286	45.57298	918.11847	-1798.22290	79.44996	933.60712	-1819.84656	107.16402	925.35999	-1797.07446	-18.04692	792.96942	-1677.56470	-79.40015	859.81653	-1736.23047	101.57611	819.80194	-1707.45898	
1848	7.696	47.14893	901.60596	-1888.36340	31.87808	894.75726	-1827.73157	20.96732	881.49207	-1774.35193	19.69257	896.84460	-1857.30920	16.75645	912.77954	-1817.91626	-7.17233	941.74023	-1845.24695	-24.51321	947.43817	-1822.85889	55.01504	893.59900	-1850.76331	45.52962	914.74255	-1818.85120	82.77885	933.05487	-1835.74817	105.68896	934.99609	-1805.24402	-17.30386	793.21008	-1692.92041	-77.04786	861.26947	-1755.59326	105.29029	819.45276	-1724.99036	
1849	7.700	49.82458	898.42291	-1906.91614	34.27429	890.89581	-1846.34119	23.29827	877.99744	-1793.14172	21.39278	892.77673	-1875.68030	19.77974	909.18756	-1837.85071	-7.98430	939.86194	-1860.81665	-19.70744	952.55261	-1836.91052	57.83775	889.23071	-1869.45715	48.10901	911.03705	-1839.81396	87.69917	931.26257	-1851.58691	105.18164	943.08624	-1817.57568	-15.99817	794.16644	-1707.60193	-74.56435	860.92389	-1774.98816	108.94125	819.62451	-1742.21240	
1850	7.704	52.40801	895.21533	-1925.31653	36.65856	886.93152	-1864.76978	25.63455	874.49121	-1811.87903	23.02272	888.71667	-1893.90125	20.55683	905.84900	-1857.14758	-10.20204	936.88916	-1876.62292	-17.79670	955.18909	-1853.84985	61.11819	884.65894	-1888.07471	53.09777	907.01007	-1860.39270	93.89315	927.72589	-1867.42371	107.97102	947.65338	-1833.78223	-13.88618	795.25226	-1722.12500	-72.08038	858.22668	-1794.37329	112.35965	819.78491	-1759.26025	
1851	7.708	54.84711	891.96069	-1943.56702	38.81084	882.85614	-1882.91101	27.97685	870.98163	-1830.57019	24.63841	884.75165	-1911.93323	19.71274	902.25293	-1875.69055	-13.24761	932.34924	-1893.04797	-19.61704	954.43164	-1872.91028	64.55376	880.13629	-1906.55640	59.93985	902.56683	-1880.14978	100.81955	922.13391	-1883.66138	115.00278	947.29034	-1852.89526	-10.94285	795.77069	-1737.00513	-69.61694	853.31610	-1813.70642	115.50905	819.12848	-1776.43726	
1852	7.713	57.12621	888.66290	-1961.69104	40.66314	878.67719	-1900.73450	30.32591	867.47711	-1849.22192	26.29695	880.91083	-1929.78918	17.71425	898.22882	-1894.00964	-16.71346	925.96375	-1910.63391	-24.81725	949.88788	-1893.54907	67.82117	875.84137	-1924.90173	67.63018	897.79297	-1899.02930	108.03099	914.55542	-1900.82202	125.54962	941.70087	-1874.00171	-7.33860	795.17908	-1752.57544	-67.15150	846.89270	-1832.98938	118.49451	817.03546	-1794.01709	
1853	7.717	59.25945	885.35468	-1979.73608	42.33709	874.46686	-1918.34460	32.68245	863.98584	-1867.83997	28.05918	877.15015	-1947.54663	14.71247	893.64453	-1913.09351	-20.32414	917.75903	-1929.82373	-32.11369	941.73224	-1915.69739	70.74590	871.78302	-1943.19604	73.64761	892.06390	-1916.24414	115.22681	905.36298	-1919.35901	137.88501	931.61584	-1896.72827	-3.33688	793.27637	-1768.92761	-64.68912	839.76099	-1852.22974	121.48433	813.40021	-1812.14063	
1854	7.721	61.26505	882.07196	-1997.76794	44.06652	870.39471	-1935.94202	35.04716	860.51599	-1886.43103	29.95704	873.40546	-1965.31567	11.42437	888.02728	-1933.88806	-23.72145	907.95667	-1950.84070	-39.90318	930.51276	-1939.60242	73.36163	867.85339	-1961.55957	78.63280	885.53479	-1933.60754	122.08485	895.01172	-1939.60217	150.18245	918.21069	-1921.16748	0.80005	790.15912	-1786.01025	-62.22223	832.50031	-1871.33228	124.59117	808.65582	-1830.79797	
1855	7.725	63.15936	878.84180	-2015.84424	45.99480	866.60931	-1953.69006	37.42080	857.07599	-1905.00098	31.96571	869.63788	-1983.19604	9.84730	882.18262	-1955.53955	-26.36211	896.83209	-1973.66553	-46.75135	916.84686	-1965.48291	75.78547	863.96515	-1980.05530	83.93947	878.88275	-1952.10864	128.17435	883.87097	-1961.68225	161.03185	902.56207	-1947.50671	4.87232	786.04694	-1803.75916	-59.68730	825.44220	-1890.05432	127.80791	803.53827	-1849.81335	
1856	7.729	64.95419	875.67950	-2033.99158	48.05170	863.11938	-1971.61658	39.80407	853.67407	-1923.55652	34.01485	865.85138	-2001.25574	9.31551	876.70660	-1976.67041	-27.60950	884.69019	-1998.01282	-51.53634	901.26007	-1993.27368	78.09198	860.13287	-1998.65503	89.55801	872.19727	-1971.93201	133.02046	872.21143	-1985.43762	169.48099	885.46002	-1975.69727	8.79259	781.17896	-1822.13721	-56.98786	818.77563	-1908.12695	131.01663	798.77435	-1868.86377	
1857	7.733	66.65970	872.58075	-2052.21045	50.12152	859.90326	-1989.69714	42.19768	850.31848	-1942.10352	36.03284	862.09271	-2019.52356	8.63525	870.03430	-1998.21826	-26.93337	871.90784	-2023.33154	-53.41011	884.25006	-2022.51062	80.30051	856.43481	-2017.29211	95.20645	865.38171	-1992.89697	136.20088	860.27985	-2010.39539	174.88086	867.51703	-2005.33020	12.59801	775.81006	-1841.09448	-54.05584	812.59467	-1925.46179	134.04831	794.85181	-1887.58777	
1858	7.738	68.30288	869.52112	-2070.50146	52.18441	856.99884	-2007.93176	44.60236	847.01746	-1960.64856	37.98592	858.45020	-2037.99609	8.48009	862.61902	-2020.40283	-24.04999	858.96484	-2048.90015	-51.78087	866.42084	-2052.35522	82.41173	852.92987	-2035.92834	100.39599	858.42365	-2014.59497	137.43153	848.38757	-2035.85852	176.81995	849.34644	-2035.71411	16.41055	770.23541	-1860.51990	-50.86839	806.95844	-1942.22241	136.76633	791.92010	-1905.74573	
1859	7.742	69.93078	866.46204	-2088.87476	54.26960	854.43738	-2026.29919	47.01883	843.77924	-1979.19763	39.88932	855.01416	-2056.64941	9.05495	855.38660	-2042.36255	-18.97658	846.44458	-2074.01172	-46.40119	848.57434	-2081.77490	84.43509	849.64575	-2054.58228	104.60307	851.50415	-2036.52283	136.65524	836.97546	-2061.09229	175.17661	831.67468	-2066.03491	20.37955	764.74744	-1880.24792	-47.45044	801.93939	-1958.73755	139.13130	789.81903	-1923.34985	
1860	7.746	71.58804	863.35535	-2107.34863	56.40181	852.19360	-2044.74829	49.44780	840.61212	-1997.75745	41.79341	851.83301	-2075.45093	10.34926	848.49664	-2063.88184	-12.03207	835.02393	-2098.13330	-37.47739	831.70251	-2109.82031	86.39228	846.61853	-2073.30225	107.68842	844.97461	-2058.10840	134.12332	826.62946	-2085.52344	170.22971	815.39557	-2095.51538	24.61814	759.54913	-1900.09717	-43.94032	797.55560	-1975.38989	141.23161	788.21338	-1940.65857	
1861	7.750	73.29395	860.14691	-2125.94043	58.56921	850.17493	-2063.22852	51.89000	837.52460	-2016.33350	43.75797	848.91132	-2094.36523	12.28635	842.13983	-2084.74365	-3.82208	825.44385	-2120.98926	-25.69385	816.91754	-2135.84766	88.31206	843.90863	-2092.12183	109.94064	839.20984	-2078.85522	130.43806	818.06189	-2108.85718	162.71674	801.49164	-2123.49927	29.14869	754.71649	-1919.92834	-40.53709	793.69812	-1992.47144	143.26498	786.76752	-1958.04089	
1862	7.754	75.03970	856.78217	-2144.66602	60.76226	848.26569	-2081.74805	54.34614	834.52460	-2034.93298	45.83559	846.22540	-2113.35376	14.70421	836.55298	-2104.67383	4.79881	818.38757	-2142.55347	-12.20654	805.30719	-2159.58960	90.23546	841.55341	-2111.05151	111.80544	834.44049	-2098.54736	126.49596	811.99261	-2131.03296	153.86961	790.86871	-2149.50562	33.87941	750.25720	-1939.66492	-37.32979	790.12360	-2010.07520	145.46536	785.26276	-1975.83044	
